<?xml version="1.0" encoding="UTF-8"?>
<svg id="Layer_2" data-name="Layer 2" xmlns="http://www.w3.org/2000/svg" viewBox="0 0 195.15 79.33">
  <defs>
    <style>
      .cls-1 {
        fill: #d66d30;
      }

      .cls-1, .cls-2, .cls-3, .cls-4, .cls-5, .cls-6 {
        stroke-width: 0px;
      }

      .cls-2 {
        fill: #000;
      }

      .cls-3 {
        fill: #4c1302;
      }

      .cls-4 {
        fill: #691c02;
      }

      .cls-5 {
        fill: #e08d42;
      }

      .cls-6 {
        fill: #eca956;
      }
    </style>
  </defs>
  <g id="Layer_1-2" data-name="Layer 1">
    <g>
      <g>
        <path class="cls-5" d="M79.64,4.72C88.04.73,96.83-.84,106.08.43c2.72.37,5.13,1.6,7.49,2.94.59.34.56.6.26,1.18-.59,1.15-1.24,2.02-2.59,2.48-1.4.47-2.41,1.66-3.28,2.88-.81-.67-1.78-1.07-2.74-1.44-1.59-.61-3,.43-3.18,2.22-.27.22-.55.45-.82.67-1.32,1.24-1.57,2.84-1.27,4.49.27,1.52,1.63,1.75,2.88,2.02.12.03.24.07.36.11.02.25,0,.51.08.75.56,1.68.22,2.88-1.38,3.97-1.6,1.09-1.49,2.95-1.19,4.71-1.06.1-2.1.28-2.75,1.27-1.23,1.3-2.14,2.73-1.85,4.62.55,3.5,2.53,5.07,6.27,5.01.59.48,1.17.96,1.77,1.42.21.16.35.32.41.59.99,4.21,4.47,6.72,8.7,6.24.81-.09,1.33.13,1.79.83,2.57,3.89,7.11,4.91,10.99,2.38,1.26-.83,2.2-1.22,3.74-.42,1.63.85,3.53.62,5.24-.33.28-.16.53-.43.95-.36.28,1.8,0,3.5-.77,5.14-1.07.7-.69,2.16-1.56,2.96.12.11.24.23.36.34-.08.18-.16.36-.24.53-.63.54-1.07,1.17-.91,2.07,0,0-.01.05-.01.05-.89-.05-.51.55-.5.97,0,0,0,.04,0,.04-.68-.08-.59.33-.47.75,0,0-.03.01-.03.01-.75.14-.74.79-.89,1.33,0,0-.05.07-.05.07-.28.06-.42.24-.42.52-.09.09-.17.19-.26.28-.89.53-1.79,1.05-2.16,2.12,0,0-.04.03-.04.03-.75-.16-.98.3-1.08.91,0,0,0,0,0,0-.47.06-.94.13-1.03.73,0,0-.02.01-.02.01-.83.06-1.59.21-1.8,1.2,0,0-.05.03-.05.03-1.05.08-1.81,1.07-2.75,1.12-1.05.05-1.03.5-.98,1.2,0,0,0,0,0,0-.44-.01-.86.01-.97.57l-.02-.06s.02.06.02.06c-.96-.03-1.6.44-2.01,1.28,0,0,0-.01,0-.01-.4.17-.99.05-1.07.71-.04.05-.09.07-.15.06-.39-.1-.7.04-1.06.23-2.67,1.44-5.37,2.83-8.16,4.02-1.47-.15-2.8-.77-4.17-1.23-2.8-.93-5.56-1.73-8.58-1.62-2.66.1-5.21-.62-7.51-2.14-.94-.62-1.22-1.79-2.31-2.24-1.48-.61-2.85-1.44-4.38-1.98-2.35-.82-4.07-2.26-4.44-4.96-.22-1.62-.96-3.07-2.24-4.13-1.22-1.01-2.26-2.19-3.02-3.52-1.25-2.2-2.18-4.54-1.99-7.18.09-1.16.09-2.31-.64-3.4-.65-.97-1.06-2.11-1.52-3.2-1.06-2.49-1.26-5.04-.35-7.63.6-1.71.56-3.47.39-5.24-.32-3.19-.38-6.26,2.1-8.87,1.05-1.11,2.04-2.36,2.67-3.91.74-1.81,1.22-3.74,2.34-5.41.88-1.32,2.32-1.79,3.46-2.7,1.31-1.04,2.47-2.2,2.98-3.86ZM104,49.67c.89-.76,1.48-1.59.81-2.8-.05-.84-.54-1.51-1.28-1.65-.91-.17-1.87-.18-2.67.64-1,1.02-.54,2.21-.62,3.34-.06.89.46,1.49,1.32,1.52.93.04,2.08.33,2.44-1.05ZM93.8,62.63h0c1.08-.05,1.28-.86,1.31-1.66.08-1.97.04-3.87-.98-5.73-1.28-2.32-2.09-2.99-4.72-2.68-1.17.14-2.43.29-3.17,1.46-.77.49-1.54.98-2.05,1.78-.9,1.07-1.86,2.17-1.68,3.66.24,1.92,2.89,5.15,5.56,4.8.91-.12,1.83-.19,2.75-.28,1.3.39,2.62-.21,2.96-1.36ZM80.45,44.41c.3,0,.54-.06.77-.32,1.39-1.56,1.11-3.36.74-5.15-.1-.49-.23-1.1-.73-1.44-2.39-1.59-5.53-.38-6.66,2.22-.08.12-.16.24-.24.36-1.46,1.99-1.07,4.35.93,5.23,1.26.55,2.59.58,3.9.11.69-.02.85-.7,1.29-1.02ZM80.68,15.46c-.26.33-.69.51-.81.95-.92,1.51-1.08,3.17-.91,4.86.11,1.09.8,1.96,1.86,2.17,1.56.3,3.17.47,4.67-.37.93-.25,1.37-1.02,1.82-1.77,1.32-.62,1.15-1.83,1.3-2.99.26-2.05-.67-4.06-2.37-4.75-1.59-.65-4.56.1-5.51,1.41-.08.12-.04.33-.06.49ZM118.11,61.21c.78-.1,1.3-.65,1.87-1.1,1.5-.13,1.83-1.48,2.42-2.46,1.02-1.7.58-3.65-.98-4.84-.63-.48-1.35-.88-2.08-1.2-1.04-.45-2.4-.03-3.12.87-.6.22-1.2.41-1.56,1.01-1.17,1.35-1.73,2.97-1.99,4.68-.25,1.67.17,2.56,1.38,3.03,1.1.43,2.26.65,3.44.2.09,0,.17-.02.26-.03.12-.05.23-.1.35-.15ZM78.42,9.85c-.21.16-.39.27-.54.4-1.91,1.63-3.26,3.6-3.81,6.09-.32,1.47-.79,2.89-1.35,4.3-.44,1.1-.81,2.28-1.09,3.46-.09.4-.05.64.32.82.28.14.51.11.62-.18.61-1.65,1.59-3.16,1.99-4.89.65-2.8,1.25-5.61,3.18-7.89.33-.39.69-.74,1.02-1.13.17-.21.18-.49.06-.72-.06-.12-.25-.18-.39-.27ZM89.67,20.94c-.16,2.37,1.02,3.75,1.9,5.26.12.21.34.42.63.33.33-.1.39-.4.41-.71.03-.41-.18-.7-.42-1.02-1.35-1.85-1.78-3.96-.8-6.01.91-1.9,1.52-3.92,2.55-5.76.17-.3.35-.69.05-.93-.34-.26-.75,0-1.01.24-.28.24-.52.58-.64.93-.53,1.56-1.29,3.02-1.98,4.5-.54,1.16-.53,2.43-.68,3.18ZM101.35,4.03c-1.68,0-3.03,0-4.38,0-.33,0-.7,0-.98.15-.27.13-.73.25-.67.65.06.37.48.44.82.46,2.1.07,4.22.22,6.31.17,1.92-.04,3.74-.26,5.48.74.34.2.87.33,1.11-.16.2-.42-.23-.68-.5-.92-.18-.16-.44-.23-.66-.35-2.18-1.16-4.55-.59-6.52-.73ZM69.47,37.33c.04.27.11.6.13.93.07,1.79,1.13,3.31,1.32,5.09.11.99.35,1.97.4,2.98.02.41.17,1.04.76.99.56-.04.48-.62.45-1.02-.1-1.38-.03-2.81-.4-4.11-.69-2.4-1.99-4.67-.89-7.28.13-.31,0-.71-.4-.8-.37-.08-.48.25-.62.51-.46.82-.66,1.72-.73,2.71ZM105.34,65.7c-1.01,0-1.98.29-2.33,1.52-.31,1.07-.37,2.11.79,2.75,1.16.65,1.98-.02,2.76-.79.09-.09.2-.16.28-.25.58-.66,1.02-1.41.66-2.29-.36-.86-1.21-.93-2.16-.95ZM129.9,54.87c-.11-.41-.27-1.02-.43-1.63-.1-.37.1-.98-.57-.92-.73.06-.47.69-.48,1.1-.03,1.3.13,2.63-.7,3.79-.98,1.36-1.93,2.75-2.9,4.11-.41.58-.87,1.14-1.27,1.73-.16.23-.34.55-.02.79.26.19.58.14.82-.06.32-.27.66-.55.91-.88,1.06-1.4,2.18-2.78,3.11-4.27.68-1.09,1.49-2.17,1.52-3.76ZM90.48,70.34c.24-.1.65.1.73-.29.07-.32-.24-.53-.49-.66-1.66-.88-3.21-1.95-4.95-2.72-1.15-.51-2.51-.98-3.18-2.28-.11-.22-.38-.36-.65-.31-.31.06-.26.4-.36.61-.2.48.1.77.42,1.08,2.19,2.16,5.08,3.08,7.72,4.46.21.11.49.08.76.11ZM100.49,63.24c-.16-1.8-1.21-3.66-2.24-5.52-.17-.3-.4-.44-.73-.24-.32.19-.3.46-.16.76.24.54.44,1.09.7,1.62,1.24,2.52,1.75,5.08.36,7.71-.21.4-.21.78.15,1.01.4.25.6-.24.77-.45,1.08-1.31,1.12-2.91,1.15-4.89ZM76.6,54.54c0,.5-.02.79,0,1.09.03.39-.14.95.53.93.65-.02.49-.59.48-.97-.05-1.31.54-2.35,1.38-3.27,1.12-1.23,2.26-2.44,2.91-4.01.14-.34.44-.7-.05-.98-.43-.25-.68.03-.92.37-.96,1.31-1.9,2.62-3.06,3.79-.85.85-1.63,1.87-1.26,3.06ZM81.27,31.92c-.49.26-1.44-.35-1.48.44-.03.68.85.91,1.57.88.13,0,.25,0,.38,0,1.6.16,3.24.27,3.83,2.19.15.48.35.96.41,1.45.05.46.24.79.57,1.08.39.34.73.39.71-.25-.05-1.47-.26-2.84-1.21-4.11-1.28-1.7-3.09-1.38-4.78-1.68ZM110.89,72.01c.03.32-.06.72.41.8.45.08.58-.21.62-.6.12-1.06.75-1.8,1.48-2.54,1.77-1.79,1.78-4.66.13-6.56-.16-.19-.27-.46-.59-.34-.3.11-.24.4-.27.65-.07.59.21,1.09.49,1.54.93,1.5.3,2.68-.64,3.86-.76.95-1.58,1.88-1.63,3.2ZM90.6,5.04c-1.62.01-2.56,1.04-2.56,2.79,0,1.16.74,2.02,1.76,2.04,1.57.03,3.06-1.29,3.05-2.7,0-1.29-.91-2.14-2.26-2.13ZM91.07,35.8c.26.53.14,1.29.31,1.96.41,1.62.98,3.21,2.5,4.21.26.17.6.27.82.03.3-.32-.11-.5-.26-.71-.66-.91-1.49-1.75-1.56-2.95-.06-1.03-.39-1.96-.76-2.9-.13-.34-.27-.68-.68-.61-.47.08-.32.51-.37.98ZM104.79,59.66c.16-.09.37-.13.42-.24.17-.33.09-.66-.18-.92-1.08-1.06-2.18-2.09-2.73-3.56-.12-.32-.4-.43-.72-.33-.38.11-.4.46-.32.72.23.71.43,1.46.81,2.09.63,1.02,1.69,1.58,2.71,2.23ZM94.92,20.89c.04.07.09.23.2.35.63.67,4.31.87,5.03.3.15-.12.29-.24.19-.38-.11-.15-.31-.31-.49-.33-1.45-.19-2.9-.35-4.35-.51-.34-.04-.57.1-.58.58ZM86.95,47.99c-.37,0-.55.25-.78.44-.84.69-1.28,1.65-1.77,2.58-.17.32-.29.68.04.91.39.26.66,0,.93-.34.71-.89,1.12-1.98,1.94-2.8.41-.41.02-.66-.36-.78ZM97.99,72.73c.39.07.47-.19.42-.45-.09-.59-.58-.65-1.05-.69-.29-.02-.68-.01-.64.4.07.8.85.5,1.27.75Z"/>
        <path class="cls-1" d="M79.64,4.72c-.52,1.65-1.68,2.82-2.98,3.86-1.14.91-2.58,1.38-3.46,2.7-1.12,1.67-1.6,3.6-2.34,5.41-.63,1.54-1.62,2.8-2.67,3.91-2.48,2.62-2.42,5.69-2.1,8.87.18,1.78.21,3.53-.39,5.24-.91,2.6-.72,5.14.35,7.63.46,1.09.87,2.22,1.52,3.2.73,1.09.72,2.24.64,3.4-.19,2.65.74,4.99,1.99,7.18.76,1.33,1.8,2.51,3.02,3.52,1.28,1.06,2.02,2.51,2.24,4.13.37,2.7,2.1,4.14,4.44,4.96,1.53.54,2.9,1.37,4.38,1.98,1.09.45,1.37,1.62,2.31,2.24,2.31,1.51,4.85,2.23,7.51,2.14,3.03-.11,5.79.69,8.58,1.62,1.37.46,2.71,1.08,4.17,1.23-.17.16-.35.33-.52.49-.18.08-.36.15-.55.23-.27-.27-.4-.08-.52.15-.17.04-.34.09-.51.13,0,0-.1,0-.1,0l-.09.05c-.18.05-.37.09-.55.14-.19-.2-.34-.16-.47.06-2.72.42-5.39-.08-8.06-.47-4.55-.67-9.08-1.4-13.58-2.44-4.76-1.11-8.47-3.45-11.3-7.48-3.61-5.13-6.9-10.45-9.37-16.2-2.6-6.05-2.6-12.4-1.3-18.78,1.08-5.31,2.5-10.54,4.79-15.45,3.06-6.54,7.94-11.27,14.9-13.64Z"/>
        <path class="cls-4" d="M102.37,38.3c-3.74.06-5.73-1.51-6.27-5.01-.29-1.89.62-3.32,1.85-4.62.31.64.9.49,1.43.5,1.62.02,1.62.01,1.61,1.64-1.72,2.3-1.68,3.81.18,6.06.4.48.81.96,1.21,1.44Z"/>
        <path class="cls-5" d="M112.54,10.59c1.57-.1,2.83.78,4.14,1.39.96.44,1,1.63.3,2.64-.95,1.38-2.88,1.79-4.68,1-1.2-.53-2.24-2.65-1.91-3.94.29-1.18,1.28-1.03,2.15-1.08Z"/>
        <path class="cls-4" d="M103.18,17.98c-.12-.04-.24-.08-.36-.11-1.25-.27-2.61-.5-2.88-2.02-.29-1.65-.04-3.25,1.27-4.49.23.53.7.5,1.17.55,1.97.23,2.87.98,2.95,2.37-1.26.91-2.01,2.12-2.15,3.69Z"/>
        <path class="cls-5" d="M115.15,7.63c-.01-1.22.84-2.68,1.85-2.98,1.25-.38,2.39.11,3.47.68.15.08.32.39.27.52-.32,1.05-.31,2.26-1.34,2.98-.9.63-1.87,1.01-2.96.54-.77-.34-1.4-.82-1.3-1.74Z"/>
        <path class="cls-5" d="M131.16,43.6c.03-1.7.87-2.99,1.94-2.97,1.13.02,2.45,1.09,2.41,1.96-.06,1.46-1.46,3.15-2.57,3.12-1.17-.03-1.81-.78-1.78-2.11Z"/>
        <path class="cls-5" d="M110.08,35.25c1.33.01,2.44,1.12,2.43,2.31,0,.91-.88,1.74-1.82,1.75-1.21,0-2.34-1.33-2.29-2.71.04-1.21.79-1.47,1.69-1.35Z"/>
        <path class="cls-5" d="M122.89,12.13c0,1.55-.66,2.36-1.96,2.37-1.04,0-1.63-.84-1.68-2.21-.05-1.15.67-1.51,2.33-1.68.95-.1,1.31.4,1.32,1.52Z"/>
        <path class="cls-3" d="M105.34,14.29c-.08-1.39-.97-2.14-2.95-2.37-.47-.06-.94-.02-1.17-.55.27-.22.55-.45.82-.67,1.82-.14,3.69-.49,5.21.99,0,.3,0,.6.01.89-.03,0-.06.02-.09.03.03.05.06.09.09.14.1,1.04-.81.94-1.37,1.23-.1.06-.21.12-.31.17-.08.05-.16.1-.24.14Z"/>
        <path class="cls-1" d="M107.24,11.69c-1.52-1.49-3.38-1.13-5.21-.99.18-1.79,1.59-2.83,3.18-2.22.95.37,1.92.77,2.74,1.44-.24.59-.48,1.19-.71,1.78Z"/>
        <path class="cls-5" d="M128.47,43.4c.54.09,1.2.17,1.25,1.01.04.7-1.09,1.82-1.79,1.82-.76,0-1.18-.42-1.24-1.13-.07-.78.89-1.7,1.78-1.69Z"/>
        <path class="cls-6" d="M106.34,78.42c.17-.16.35-.33.52-.49,2.8-1.19,5.49-2.58,8.16-4.02.35-.19.67-.32,1.06-.23-3.02,2.04-6.29,3.58-9.74,4.74Z"/>
        <path class="cls-3" d="M100.98,30.8c.01-1.62.01-1.62-1.61-1.64-.53,0-1.12.15-1.43-.5.65-1,1.68-1.17,2.75-1.27.17,1.13,1.09,2.19.29,3.4Z"/>
        <path class="cls-6" d="M125.89,41.62c.24-.69.55-1.33,1.43-1.34.48,0,.85.27.77.78-.12.75-.51,1.38-1.34,1.46-.54.05-.8-.36-.86-.9Z"/>
        <path class="cls-6" d="M120.29,71.07c-.05-.71-.07-1.15.98-1.2.94-.05,1.7-1.03,2.75-1.12-1.17.9-2.44,1.62-3.73,2.32Z"/>
        <path class="cls-6" d="M133.99,57.1c-.12-.11-.24-.23-.36-.34.87-.8.49-2.26,1.56-2.96-.36,1.11-.56,2.29-1.2,3.3Z"/>
        <path class="cls-6" d="M128.04,65.83c.36-1.07,1.26-1.59,2.16-2.12-.5.93-1.21,1.64-2.16,2.12Z"/>
        <path class="cls-6" d="M117.31,72.92c.41-.84,1.05-1.31,2.01-1.28-.58.57-1.23,1.03-2.01,1.28Z"/>
        <path class="cls-6" d="M124.07,68.72c.21-.99.97-1.14,1.8-1.2-.5.54-1.11.93-1.8,1.2Z"/>
        <path class="cls-6" d="M132.84,59.69c-.16-.89.28-1.52.91-2.07-.14.76-.38,1.48-.91,2.07Z"/>
        <path class="cls-6" d="M130.92,62.84c.15-.54.15-1.19.89-1.33-.22.5-.31,1.08-.89,1.33Z"/>
        <path class="cls-6" d="M126.92,66.78c.1-.62.33-1.07,1.08-.91-.25.43-.59.77-1.08.91Z"/>
        <path class="cls-6" d="M116.24,73.62c.08-.66.67-.53,1.07-.71-.23.43-.62.62-1.07.71Z"/>
        <path class="cls-6" d="M132.32,60.71c0-.41-.38-1.02.5-.97-.05.38-.17.73-.5.97Z"/>
        <path class="cls-6" d="M125.89,67.51c.08-.61.55-.67,1.03-.73-.24.39-.58.63-1.03.73Z"/>
        <path class="cls-6" d="M131.84,61.5c-.12-.42-.21-.83.47-.75-.03.33-.15.6-.47.75Z"/>
        <path class="cls-6" d="M119.32,71.64c.11-.55.53-.58.97-.57-.21.37-.57.51-.97.57Z"/>
        <path class="cls-6" d="M105.28,78.8c.12-.23.25-.42.52-.15-.14.17-.31.23-.52.15Z"/>
        <path class="cls-6" d="M130.45,63.44c0-.29.14-.46.42-.52-.05.25-.16.44-.42.52Z"/>
        <path class="cls-6" d="M103.55,79.17c.13-.22.29-.26.47-.06-.16.02-.31.04-.47.06Z"/>
        <path class="cls-1" d="M107.26,12.74s-.06-.09-.09-.14c.03,0,.06-.02.09-.03,0,0,.06.08.06.08l-.06.08Z"/>
        <path class="cls-4" d="M105.57,14.14c.1-.06.21-.12.31-.17-.1.06-.21.12-.31.17Z"/>
        <path class="cls-6" d="M104.57,78.97l.09-.05s.1,0,.1,0c-.07.01-.13.03-.2.04Z"/>
        <path class="cls-4" d="M90.84,63.98c-.92.09-1.84.16-2.75.28-2.67.35-5.32-2.89-5.56-4.8-.18-1.5.78-2.6,1.68-3.66-.09.8.47.7.87.53,2.17-.88,3.5,1.1,5.28,1.52.09.02.17.19.21.3.53,1.23.99,2.49.73,3.86-.11.6-.66,1.09-.46,1.78,0,.07,0,.13-.01.2Z"/>
        <path class="cls-3" d="M90.85,63.78c-.21-.69.34-1.18.46-1.78.26-1.37-.21-2.63-.73-3.86-.05-.11-.12-.28-.21-.3-1.78-.43-3.11-2.4-5.28-1.52-.4.16-.96.26-.87-.53.51-.79,1.28-1.28,2.05-1.78.94-.28,1.92-.16,2.86-.28,2.4-.29,4.76,2.15,4.74,4.06,0,.33,0,.7.14.98.67,1.33.54,2.59-.19,3.84,0,0,0,0,0,0-.93.53-1.84,1.1-2.95,1.16Z"/>
        <path class="cls-4" d="M85.49,23.07c-1.5.84-3.11.67-4.67.37-1.07-.21-1.75-1.08-1.86-2.17-.18-1.69-.01-3.36.91-4.86.11.66.61.58,1.07.57.76-.02,1.49.11,2.24.22,1.14.17,1.49.77,1.59,1.86.12,1.35.47,2.68.72,4.01Z"/>
        <path class="cls-4" d="M117.5,61.39c-1.18.45-2.34.23-3.44-.2-1.21-.47-1.64-1.35-1.38-3.03.26-1.71.82-3.33,1.99-4.68.26.46.39.99,1.09,1.09,1.5.22,2.06,1.02,2.27,2.52.21,1.51-.28,2.88-.53,4.3Z"/>
        <path class="cls-3" d="M117.5,61.39c.25-1.42.74-2.79.53-4.3-.21-1.5-.77-2.3-2.27-2.52-.7-.1-.83-.63-1.09-1.09.35-.59.96-.79,1.56-1.01.59,0,1.19,0,1.78.02,1.87.09,2.87,1.04,3.03,2.91.15,1.68.02,3.3-1.06,4.7-.57.45-1.09,1.01-1.87,1.1-.12.05-.23.1-.35.15-.09,0-.17.02-.26.03Z"/>
        <path class="cls-3" d="M85.49,23.07c-.25-1.34-.6-2.67-.72-4.01-.1-1.09-.45-1.69-1.59-1.86-.75-.11-1.48-.24-2.24-.22-.46.01-.96.09-1.07-.57.12-.44.55-.62.81-.95,1.52-.43,3.04-.68,4.61-.26,1.1.3,1.79.97,1.91,2.09.15,1.33.51,2.66.11,4.01-.45.75-.88,1.52-1.82,1.77Z"/>
        <path class="cls-4" d="M79.16,45.43c-1.31.48-2.64.45-3.9-.11-2-.87-2.39-3.23-.93-5.23,1.17.56,2.47.72,3.68,1.2.85.34,1.07.82,1.14,1.58.05.64-.24,1.18-.59,1.64-.7.95-.06.91.6.92Z"/>
        <path class="cls-1" d="M78.42,9.85c.15.1.33.15.39.27.12.23.11.51-.06.72-.32.39-.69.74-1.02,1.13-1.92,2.28-2.53,5.09-3.18,7.89-.4,1.73-1.38,3.24-1.99,4.89-.11.29-.34.32-.62.18-.37-.18-.42-.43-.32-.82.28-1.18.65-2.36,1.09-3.46.56-1.41,1.03-2.83,1.35-4.3.55-2.49,1.9-4.46,3.81-6.09.16-.13.33-.25.54-.4Z"/>
        <path class="cls-1" d="M74.57,39.73c1.13-2.6,4.27-3.82,6.66-2.22.51.34.63.94.73,1.44.37,1.78.64,3.59-.74,5.15-.23.26-.47.32-.77.32,1.29-1.51.45-2.91-.3-4.26-.56-1.01-1.65-1.01-2.67-1.06-1.04-.05-2,.19-2.92.64Z"/>
        <path class="cls-6" d="M89.67,20.94c.16-.75.14-2.02.68-3.18.69-1.48,1.45-2.94,1.98-4.5.12-.35.36-.69.64-.93.27-.23.68-.5,1.01-.24.3.24.12.63-.05.93-1.03,1.84-1.64,3.86-2.55,5.76-.98,2.05-.55,4.16.8,6.01.23.32.44.6.42,1.02-.02.31-.08.61-.41.71-.29.09-.5-.12-.63-.33-.88-1.5-2.06-2.89-1.9-5.26Z"/>
        <path class="cls-1" d="M101.35,4.03c1.97.14,4.34-.43,6.52.73.22.12.48.19.66.35.27.24.71.5.5.92-.24.49-.77.36-1.11.16-1.74-1-3.56-.79-5.48-.74-2.08.05-4.2-.1-6.31-.17-.33-.01-.76-.09-.82-.46-.06-.39.4-.52.67-.65.28-.14.65-.14.98-.15,1.35-.01,2.71,0,4.38,0Z"/>
        <path class="cls-1" d="M87.31,21.3c.41-1.35.04-2.68-.11-4.01-.12-1.13-.82-1.8-1.91-2.09-1.57-.42-3.09-.17-4.61.26.02-.17-.03-.38.06-.49.95-1.31,3.91-2.06,5.51-1.41,1.7.69,2.62,2.7,2.37,4.75-.15,1.16.02,2.37-1.3,2.99Z"/>
        <path class="cls-3" d="M74.57,39.73c.92-.45,1.88-.69,2.92-.64,1.02.05,2.11.05,2.67,1.06.75,1.34,1.58,2.74.3,4.26-.45.32-.61,1-1.29,1.02-.66,0-1.3.03-.6-.92.34-.46.64-1,.59-1.64-.06-.76-.28-1.24-1.14-1.58-1.21-.48-2.51-.64-3.68-1.2.08-.12.16-.24.24-.36Z"/>
        <path class="cls-1" d="M69.47,37.33c.08-1,.27-1.89.73-2.71.14-.25.26-.59.62-.51.41.09.53.49.4.8-1.1,2.61.2,4.89.89,7.28.37,1.3.3,2.74.4,4.11.03.4.11.97-.45,1.02-.59.05-.74-.57-.76-.99-.05-1.01-.3-1.99-.4-2.98-.19-1.78-1.25-3.3-1.32-5.09-.01-.33-.09-.66-.13-.93Z"/>
        <path class="cls-1" d="M93.81,62.62c.72-1.25.86-2.51.19-3.84-.14-.28-.14-.65-.14-.98.02-1.91-2.34-4.35-4.74-4.06-.95.12-1.93,0-2.86.28.74-1.17,2.01-1.32,3.17-1.46,2.63-.32,3.44.36,4.72,2.68,1.02,1.85,1.06,3.76.98,5.73-.03.81-.23,1.62-1.31,1.65Z"/>
        <path class="cls-4" d="M105.34,65.7c.94.02,1.8.08,2.16.95.36.87-.08,1.63-.66,2.29-.08.09-.19.16-.28.25-.77.77-1.6,1.44-2.76.79-1.15-.64-1.09-1.68-.79-2.75.35-1.23,1.32-1.52,2.33-1.52Z"/>
        <path class="cls-1" d="M129.9,54.87c-.03,1.59-.84,2.67-1.52,3.76-.93,1.49-2.05,2.86-3.11,4.27-.25.33-.59.61-.91.88-.24.21-.56.26-.82.06-.32-.24-.14-.56.02-.79.4-.59.86-1.14,1.27-1.73.97-1.37,1.92-2.75,2.9-4.11.83-1.16.67-2.48.7-3.79,0-.41-.25-1.04.48-1.1.67-.06.47.55.57.92.16.61.32,1.22.43,1.63Z"/>
        <path class="cls-1" d="M119.98,60.11c1.08-1.4,1.21-3.02,1.06-4.7-.17-1.86-1.17-2.81-3.03-2.91-.59-.03-1.18-.02-1.78-.02.72-.9,2.07-1.33,3.12-.87.73.32,1.45.72,2.08,1.2,1.56,1.19,1.99,3.15.98,4.84-.59.98-.92,2.33-2.42,2.46Z"/>
        <path class="cls-1" d="M90.48,70.34c-.27-.04-.55,0-.76-.11-2.63-1.38-5.53-2.3-7.72-4.46-.32-.31-.62-.6-.42-1.08.09-.22.05-.55.36-.61.27-.06.53.09.65.31.67,1.3,2.03,1.77,3.18,2.28,1.74.77,3.29,1.83,4.95,2.72.25.14.56.34.49.66-.08.4-.49.2-.73.29Z"/>
        <path class="cls-6" d="M100.49,63.24c-.04,1.99-.07,3.58-1.15,4.89-.17.21-.37.7-.77.45-.35-.22-.36-.61-.15-1.01,1.38-2.64.88-5.19-.36-7.71-.26-.53-.46-1.08-.7-1.62-.13-.3-.16-.57.16-.76.33-.19.56-.05.73.24,1.03,1.86,2.08,3.72,2.24,5.52Z"/>
        <path class="cls-6" d="M76.6,54.54c-.37-1.19.41-2.21,1.26-3.06,1.16-1.16,2.1-2.48,3.06-3.79.25-.34.49-.62.92-.37.49.28.19.64.05.98-.65,1.57-1.79,2.78-2.91,4.01-.84.92-1.43,1.96-1.38,3.27.01.38.18.94-.48.97-.66.02-.5-.54-.53-.93-.02-.29,0-.59,0-1.09Z"/>
        <path class="cls-1" d="M81.27,31.92c1.69.3,3.51-.02,4.78,1.68.95,1.27,1.16,2.65,1.21,4.11.02.63-.32.59-.71.25-.32-.29-.52-.62-.57-1.08-.06-.49-.26-.97-.41-1.45-.59-1.92-2.23-2.03-3.83-2.19-.13-.01-.25,0-.38,0-.72.03-1.6-.2-1.57-.88.03-.79.98-.18,1.48-.44Z"/>
        <path class="cls-1" d="M104,49.67c-.36,1.38-1.51,1.09-2.44,1.05-.86-.04-1.38-.64-1.32-1.52.08-1.13-.38-2.32.62-3.34.81-.82,1.77-.81,2.67-.64.74.14,1.23.81,1.28,1.65-.36-.11-.71-.24-1.07-.32-1-.22-2.07.43-2.21,1.32-.14.94.48,1.67,1.6,1.83.28.04.58-.02.87-.03Z"/>
        <path class="cls-6" d="M110.89,72.01c.05-1.31.87-2.25,1.63-3.2.94-1.18,1.57-2.36.64-3.86-.28-.45-.56-.95-.49-1.54.03-.24-.04-.53.27-.65.32-.12.43.15.59.34,1.66,1.9,1.64,4.77-.13,6.56-.73.74-1.36,1.48-1.48,2.54-.04.38-.17.67-.62.6-.47-.08-.39-.47-.41-.8Z"/>
        <path class="cls-1" d="M90.6,5.04c1.34,0,2.25.84,2.26,2.13.01,1.41-1.48,2.73-3.05,2.7-1.02-.02-1.76-.87-1.76-2.04,0-1.75.94-2.78,2.56-2.79ZM90.21,6.04c-.65,0-1.41.66-1.41,1.54,0,.92.41,1.56,1.32,1.72.76.13,1.49-1.06,1.48-2.3,0-.7-.39-.97-1.38-.97Z"/>
        <path class="cls-4" d="M104,49.67c-.29.01-.59.07-.87.03-1.11-.16-1.74-.9-1.6-1.83.13-.89,1.21-1.54,2.21-1.32.36.08.72.21,1.07.32.67,1.21.07,2.04-.81,2.8Z"/>
        <path class="cls-6" d="M91.07,35.8c.06-.47-.1-.9.37-.98.41-.07.55.27.68.61.37.94.7,1.87.76,2.9.07,1.2.89,2.04,1.56,2.95.16.21.56.39.26.71-.22.24-.55.14-.82-.03-1.52-.99-2.08-2.58-2.5-4.21-.17-.67-.05-1.42-.31-1.96Z"/>
        <path class="cls-1" d="M104.79,59.66c-1.02-.65-2.09-1.21-2.71-2.23-.38-.63-.58-1.38-.81-2.09-.08-.26-.06-.61.32-.72.33-.09.6.01.72.33.55,1.46,1.65,2.5,2.73,3.56.27.26.35.59.18.92-.06.11-.26.15-.42.24Z"/>
        <path class="cls-1" d="M94.92,20.89c.01-.48.24-.62.58-.58,1.45.16,2.9.32,4.35.51.18.02.38.18.49.33.1.14-.05.27-.19.38-.71.57-4.39.38-5.03-.3-.11-.11-.16-.28-.2-.35Z"/>
        <path class="cls-1" d="M86.95,47.99c.38.12.76.37.36.78-.82.82-1.22,1.92-1.94,2.8-.27.34-.54.61-.93.34-.34-.22-.21-.59-.04-.91.5-.92.93-1.89,1.77-2.58.23-.19.41-.44.78-.44Z"/>
        <path class="cls-1" d="M97.99,72.73c-.41-.25-1.2.05-1.27-.75-.04-.41.35-.42.64-.4.47.04.95.1,1.05.69.04.27-.03.52-.42.45Z"/>
        <path class="cls-1" d="M90.85,63.78c1.11-.06,2.02-.63,2.95-1.16-.35,1.15-1.66,1.75-2.96,1.36,0-.07.01-.13.01-.2Z"/>
        <path class="cls-4" d="M117.76,61.36c.12-.05.23-.1.35-.15-.12.05-.23.1-.35.15Z"/>
        <path class="cls-4" d="M90.21,6.04c.99,0,1.38.27,1.38.97,0,1.24-.72,2.43-1.48,2.3-.91-.16-1.33-.8-1.32-1.72,0-.88.76-1.55,1.41-1.54Z"/>
      </g>
      <path class="cls-2" d="M54.15,7.05c0,1.99-.83,3.72-2.49,5.19-.81.77-2.84,2.17-6.11,4.19-9.71,5.88-20.09,13.85-31.12,23.91,6.92,6.58,13.83,12.39,20.75,17.42,3.69,2.57,7.39,5.13,11.08,7.7,3.03,2.13,4.55,4.41,4.55,6.82,0,3.88-2.04,5.83-6.11,5.83-3.13,0-9.19-3.51-18.19-10.53C8.83,53.93,0,44.85,0,40.34c0-3.41,3.43-8.25,10.3-14.51,5.49-4.98,12.01-9.98,19.54-15.01C39.41,4.43,45.43,1.22,47.89,1.22c4.17,0,6.25,1.94,6.25,5.83Z"/>
      <path class="cls-2" d="M147.25,1.22c2.46,0,8.48,3.2,18.05,9.6,7.53,5.03,14.05,10.03,19.54,15.01,6.87,6.26,10.3,11.1,10.3,14.51,0,4.51-8.83,13.59-26.5,27.24-9,7.02-15.06,10.53-18.19,10.53-4.07,0-6.11-1.94-6.11-5.83,0-2.42,1.52-4.69,4.55-6.82,3.7-2.56,7.39-5.13,11.08-7.7,6.92-5.04,13.83-10.84,20.75-17.42-11.04-10.07-21.41-18.04-31.12-23.91-3.27-2.02-5.3-3.42-6.11-4.19-1.66-1.47-2.49-3.2-2.49-5.19,0-3.88,2.08-5.83,6.25-5.83Z"/>
    </g>
  </g>
</svg>