<?xml version="1.0" encoding="UTF-8"?>
<svg id="Layer_2" data-name="Layer 2" xmlns="http://www.w3.org/2000/svg" viewBox="0 0 2088.46 849.03">
  <defs>
    <style>
      .cls-1 {
        fill: #d66d30;
      }

      .cls-1, .cls-2, .cls-3, .cls-4, .cls-5, .cls-6 {
        stroke-width: 0px;
      }

      .cls-2 {
        fill: #4c1302;
      }

      .cls-3 {
        fill: #691c02;
      }

      .cls-4 {
        fill: #e08d42;
      }

      .cls-5 {
        fill: #eca956;
      }

      .cls-6 {
        fill: #fff;
      }
    </style>
  </defs>
  <g id="Layer_1-2" data-name="Layer 1">
    <g>
      <g>
        <path class="cls-4" d="M852.26,50.47c89.91-42.61,184.06-59.45,283-45.87,29.11,3.99,54.95,17.13,80.2,31.5,6.35,3.61,5.96,6.47,2.77,12.66-6.34,12.29-13.32,21.63-27.75,26.49-15.03,5.07-25.74,17.8-35.1,30.79-8.69-7.15-19.08-11.44-29.29-15.36-17.01-6.53-32.15,4.6-34.07,23.78-2.93,2.39-5.87,4.78-8.8,7.17-14.09,13.29-16.75,30.37-13.63,48.03,2.87,16.23,17.45,18.72,30.81,21.59,1.31.28,2.57.77,3.86,1.17.26,2.67.03,5.5.85,7.99,5.99,18.02,2.33,30.86-14.76,42.47-17.1,11.62-15.97,31.61-12.77,50.37-11.39,1.09-22.42,2.96-29.39,13.61-13.14,13.87-22.91,29.25-19.76,49.44,5.86,37.47,27.12,54.26,67.15,53.58,6.28,5.09,12.47,10.31,18.9,15.21,2.27,1.73,3.72,3.39,4.41,6.33,10.61,45.02,47.88,71.88,93.07,66.75,8.71-.99,14.22,1.35,19.19,8.85,27.55,41.61,76.13,52.58,117.57,25.52,13.53-8.84,23.51-13.1,40.02-4.53,17.46,9.06,37.83,6.68,56.04-3.48,2.98-1.66,5.69-4.62,10.19-3.82,3.04,19.22-.04,37.46-8.2,54.99-11.48,7.45-7.36,23.11-16.7,31.68,1.28,1.22,2.56,2.43,3.84,3.65-.85,1.9-1.7,3.8-2.55,5.71-6.75,5.82-11.41,12.57-9.75,22.11,0,0-.14.55-.14.54-9.49-.55-5.48,5.92-5.39,10.35,0,0-.07.41-.08.41-7.32-.87-6.31,3.5-5.07,8.03,0,0-.28.13-.29.13-7.98,1.54-7.94,8.44-9.54,14.24,0,0-.54.76-.54.76-2.98.67-4.46,2.55-4.46,5.6-.93.99-1.86,1.98-2.79,2.97-9.57,5.64-19.19,11.23-23.09,22.65,0,0-.4.37-.41.36-8.01-1.68-10.53,3.16-11.58,9.74,0,0-.01-.01-.01-.02-5.06.67-10.09,1.38-10.99,7.86,0,0-.2.13-.2.13-8.86.61-17.02,2.25-19.23,12.82,0,0-.49.31-.48.31-11.26.88-19.42,11.46-29.48,11.95-11.2.55-11.04,5.32-10.46,12.89,0,0-.05.04-.05.04-4.71-.14-9.18.13-10.34,6.05l-.24-.65s.19.66.18.65c-10.28-.31-17.17,4.71-21.53,13.7,0,0-.01-.12-.02-.12-4.25,1.87-10.64.5-11.45,7.57-.4.55-.93.77-1.6.65-4.18-1.04-7.53.39-11.32,2.43-28.6,15.4-57.45,30.33-87.37,43.06-15.68-1.61-30-8.25-44.66-13.13-29.95-9.96-59.47-18.52-91.87-17.37-28.5,1.02-55.71-6.66-80.4-22.87-10.08-6.62-13.02-19.16-24.7-23.95-15.85-6.5-30.55-15.42-46.92-21.15-25.13-8.79-43.61-24.19-47.55-53.12-2.36-17.29-10.31-32.88-24-44.18-13.04-10.77-24.17-23.41-32.28-37.62-13.39-23.5-23.36-48.56-21.29-76.87.91-12.43.97-24.72-6.81-36.38-6.94-10.4-11.32-22.57-16.28-34.2-11.39-26.7-13.45-53.9-3.74-81.67,6.39-18.28,6.04-37.09,4.13-56.11-3.43-34.1-4.08-66.96,22.47-94.97,11.26-11.88,21.84-25.26,28.55-41.8,7.87-19.38,13.09-40.03,25.03-57.94,9.39-14.09,24.8-19.13,36.99-28.87,13.99-11.18,26.38-23.6,31.92-41.31ZM1112.97,531.59c9.47-8.08,15.83-17.06,8.7-29.97-.53-9.04-5.79-16.17-13.68-17.66-9.73-1.83-20-1.94-28.62,6.82-10.7,10.88-5.76,23.68-6.6,35.73-.67,9.5,4.89,15.94,14.09,16.32,9.96.42,22.23,3.52,26.11-11.25ZM1003.9,670.22l.1-.1c11.57-.41,13.74-9.08,14.07-17.7.81-21.06.41-41.45-10.52-61.29-13.66-24.81-22.35-32.05-50.48-28.64-12.48,1.51-26.02,3.09-33.95,15.59-8.24,5.26-16.47,10.53-21.91,19-9.64,11.42-19.92,23.19-17.94,39.2,2.54,20.5,30.9,55.13,59.48,51.41,9.77-1.27,19.62-1.98,29.44-2.95,13.92,4.19,28-2.25,31.72-14.51ZM860.98,475.26c3.23.03,5.73-.62,8.23-3.43,14.85-16.68,11.91-35.98,7.95-55.07-1.1-5.29-2.44-11.74-7.85-15.36-25.53-17.05-59.17-4.06-71.27,23.8-.86,1.3-1.71,2.59-2.57,3.89-15.66,21.34-11.45,46.58,9.93,55.94,13.5,5.91,27.68,6.25,41.74,1.14,7.34-.18,9.06-7.49,13.85-10.9ZM863.43,165.46c-2.78,3.5-7.37,5.44-8.7,10.17-9.86,16.11-11.59,33.94-9.7,52.05,1.22,11.66,8.51,20.98,19.94,23.2,16.69,3.25,33.95,5.04,49.98-3.96,9.99-2.71,14.62-10.92,19.43-18.94,14.07-6.64,12.34-19.63,13.91-32.04,2.77-21.96-7.14-43.43-25.32-50.86-17.06-6.97-48.79,1.05-58.93,15.09-.9,1.25-.44,3.5-.61,5.28ZM1263.98,655.08c8.38-1.04,13.88-6.97,20.02-11.81,16.04-1.42,19.58-15.83,25.88-26.36,10.88-18.17,6.25-39.11-10.45-51.83-6.76-5.15-14.42-9.41-22.23-12.8-11.16-4.85-25.65-.28-33.35,9.36-6.37,2.32-12.89,4.42-16.65,10.77-12.49,14.39-18.51,31.79-21.28,50.07-2.72,17.9,1.86,27.39,14.8,32.39,11.79,4.56,24.22,6.94,36.8,2.12.91-.09,1.83-.18,2.74-.27,1.25-.55,2.5-1.1,3.74-1.65ZM839.29,105.37c-2.27,1.68-4.14,2.88-5.81,4.31-20.39,17.47-34.86,38.58-40.73,65.21-3.47,15.74-8.46,30.9-14.45,46.02-4.67,11.78-8.68,24.41-11.66,37.08-1,4.26-.56,6.86,3.45,8.81,2.99,1.46,5.47,1.13,6.62-1.98,6.54-17.68,17-33.85,21.26-52.32,6.93-30,13.41-60.05,33.99-84.49,3.48-4.13,7.43-7.88,10.87-12.04,1.83-2.21,1.94-5.22.68-7.7-.65-1.28-2.64-1.88-4.23-2.91ZM959.61,224.13c-1.71,25.36,10.9,40.17,20.36,56.25,1.32,2.25,3.64,4.47,6.71,3.52,3.54-1.1,4.15-4.27,4.38-7.62.29-4.43-1.97-7.5-4.45-10.91-14.47-19.84-19.07-42.33-8.56-64.31,9.71-20.31,16.22-41.97,27.27-61.62,1.8-3.19,3.75-7.42.51-9.93-3.6-2.79-8.02.07-10.86,2.53-2.96,2.57-5.58,6.23-6.85,9.93-5.71,16.67-13.77,32.27-21.19,48.16-5.79,12.39-5.67,26.02-7.33,34ZM1084.64,43.15c-17.95,0-32.43-.09-46.9.06-3.54.04-7.47.07-10.51,1.55-2.88,1.4-7.84,2.7-7.16,6.92.64,3.94,5.19,4.76,8.73,4.87,22.52.72,45.21,2.31,67.5,1.79,20.53-.48,40-2.81,58.65,7.94,3.66,2.11,9.33,3.58,11.88-1.71,2.17-4.51-2.47-7.3-5.38-9.89-1.93-1.71-4.69-2.47-7.04-3.72-23.36-12.45-48.71-6.28-69.76-7.82ZM743.51,399.46c.41,2.89,1.21,6.43,1.35,9.99.77,19.14,12.06,35.48,14.1,54.48,1.14,10.6,3.79,21.08,4.32,31.91.22,4.44,1.8,11.08,8.09,10.59,6.02-.48,5.16-6.62,4.85-10.91-1.06-14.73-.29-30.08-4.3-44.02-7.39-25.67-21.31-49.97-9.57-77.95,1.39-3.31.05-7.58-4.33-8.58-3.94-.9-5.14,2.72-6.68,5.44-4.95,8.81-7.01,18.38-7.84,29.05ZM1127.35,703.15c-10.81.04-21.16,3.16-24.96,16.28-3.3,11.41-3.91,22.56,8.41,29.43,12.42,6.93,21.23-.17,29.51-8.45.95-.95,2.15-1.67,3.03-2.67,6.2-7.05,10.95-15.11,7.08-24.46-3.83-9.25-12.96-9.98-23.07-10.14ZM1390.21,587.22c-1.15-4.35-2.86-10.88-4.58-17.4-1.04-3.94,1.09-10.45-6.08-9.83-7.77.67-4.99,7.43-5.09,11.8-.3,13.95,1.44,28.11-7.49,40.52-10.49,14.58-20.66,29.38-31.07,44.02-4.43,6.23-9.27,12.17-13.59,18.47-1.72,2.51-3.63,5.92-.21,8.47,2.77,2.07,6.19,1.54,8.79-.68,3.44-2.93,7.04-5.86,9.74-9.43,11.36-15.03,23.3-29.75,33.28-45.67,7.29-11.64,15.97-23.23,16.32-40.26ZM968.3,752.75c2.61-1.03,6.93,1.09,7.83-3.14.73-3.47-2.56-5.66-5.28-7.11-17.76-9.47-34.35-20.83-52.97-29.09-12.35-5.47-26.83-10.5-34.05-24.41-1.21-2.33-4.08-3.9-6.92-3.31-3.29.69-2.83,4.24-3.8,6.58-2.14,5.13,1.08,8.2,4.45,11.54,23.39,23.09,54.42,32.93,82.58,47.72,2.24,1.18,5.28.83,8.16,1.22ZM1075.42,676.83c-1.73-19.26-12.92-39.16-23.98-59.1-1.77-3.19-4.26-4.69-7.77-2.62-3.46,2.04-3.18,4.96-1.76,8.19,2.53,5.75,4.67,11.69,7.44,17.32,13.31,26.99,18.7,54.32,3.9,82.56-2.24,4.27-2.2,8.39,1.57,10.77,4.3,2.72,6.4-2.52,8.26-4.77,11.57-14.01,11.96-31.1,12.34-52.35ZM819.83,583.64c0,5.33-.18,8.49.05,11.63.31,4.16-1.45,10.16,5.64,9.91,6.99-.25,5.25-6.32,5.1-10.36-.54-14.07,5.79-25.13,14.76-35.01,11.96-13.17,24.22-26.08,31.13-42.9,1.49-3.62,4.68-7.51-.55-10.51-4.63-2.66-7.24.36-9.88,3.96-10.28,14.02-20.35,28.08-32.77,40.54-9.05,9.08-17.46,20.05-13.48,32.75ZM869.73,341.57c-5.28,2.8-15.45-3.75-15.79,4.74-.3,7.26,9.11,9.69,16.83,9.37,1.35-.06,2.72-.1,4.06.04,17.14,1.75,34.65,2.91,40.98,23.49,1.58,5.14,3.77,10.23,4.37,15.49.56,4.95,2.62,8.46,6.09,11.55,4.14,3.68,7.79,4.13,7.56-2.63-.53-15.69-2.73-30.44-12.94-44.04-13.65-18.18-33.09-14.77-51.17-18.01ZM1186.77,770.7c.27,3.48-.62,7.69,4.43,8.53,4.85.81,6.17-2.3,6.64-6.39,1.3-11.36,7.99-19.26,15.82-27.19,18.92-19.17,19.05-49.85,1.34-70.23-1.75-2.01-2.92-4.91-6.32-3.64-3.26,1.22-2.54,4.31-2.85,6.91-.76,6.3,2.26,11.71,5.24,16.5,10,16.06,3.26,28.69-6.83,41.28-8.13,10.14-16.87,20.14-17.47,34.22ZM969.6,53.96c-17.33.11-27.4,11.08-27.4,29.85,0,12.45,7.93,21.62,18.88,21.82,16.86.3,32.79-13.78,32.68-28.89-.1-13.76-9.77-22.88-24.16-22.78ZM974.63,383.11c2.8,5.72,1.48,13.76,3.31,20.93,4.44,17.39,10.53,34.4,26.74,45.04,2.8,1.84,6.37,2.87,8.73.34,3.21-3.45-1.13-5.35-2.81-7.65-7.11-9.73-15.92-18.75-16.66-31.58-.63-11.02-4.15-21.03-8.09-31.08-1.42-3.61-2.9-7.23-7.26-6.5-5,.85-3.38,5.5-3.97,10.49ZM1121.48,638.5c1.73-.92,3.92-1.35,4.54-2.56,1.81-3.53.95-7.05-1.89-9.83-11.55-11.31-23.34-22.38-29.25-38.05-1.28-3.4-4.25-4.55-7.73-3.54-4.06,1.17-4.26,4.93-3.38,7.71,2.41,7.65,4.55,15.68,8.67,22.42,6.7,10.97,18.1,16.93,29.04,23.86ZM1015.82,223.57c.42.75,1,2.49,2.14,3.7,6.79,7.22,46.18,9.33,53.82,3.2,1.56-1.25,3.14-2.54,2.05-4.09-1.16-1.64-3.34-3.28-5.26-3.53-15.49-2.02-31.01-3.75-46.54-5.46-3.66-.4-6.11,1.09-6.22,6.18ZM930.54,513.57c-3.99,0-5.93,2.69-8.36,4.67-9.01,7.37-13.65,17.71-18.99,27.59-1.85,3.43-3.15,7.33.43,9.73,4.21,2.82,7.1-.09,10-3.68,7.64-9.5,11.94-21.19,20.74-30,4.34-4.36.22-7.04-3.82-8.31ZM1048.74,778.4c4.21.71,5-1.98,4.54-4.85-1.01-6.3-6.25-6.98-11.22-7.4-3.13-.27-7.25-.15-6.87,4.25.74,8.57,9.13,5.31,13.55,8Z"/>
        <path class="cls-1" d="M852.26,50.47c-5.54,17.71-17.94,30.13-31.92,41.31-12.19,9.75-27.6,14.78-36.99,28.87-11.94,17.92-17.16,38.56-25.03,57.94-6.71,16.53-17.29,29.91-28.55,41.8-26.55,28.01-25.9,60.86-22.47,94.97,1.91,19.02,2.27,37.82-4.13,56.11-9.71,27.78-7.66,54.97,3.74,81.67,4.96,11.63,9.34,23.81,16.28,34.2,7.78,11.65,7.73,23.95,6.81,36.38-2.08,28.31,7.89,53.37,21.29,76.87,8.1,14.22,19.24,26.86,32.28,37.62,13.68,11.3,21.64,26.89,24,44.18,3.94,28.93,22.42,44.33,47.55,53.12,16.37,5.73,31.07,14.65,46.92,21.15,11.69,4.79,14.62,17.34,24.7,23.95,24.69,16.21,51.9,23.89,80.4,22.87,32.4-1.16,61.92,7.4,91.87,17.37,14.66,4.88,28.98,11.52,44.66,13.13-1.87,1.76-3.73,3.52-5.59,5.27-1.95.82-3.9,1.63-5.84,2.45-2.86-2.87-4.28-.86-5.55,1.63-1.81.46-3.62.91-5.43,1.37,0,0-1.12-.05-1.12-.05l-1,.52c-1.97.5-3.93,1.01-5.9,1.51-1.99-2.17-3.64-1.68-5.04.65-29.1,4.45-57.69-.82-86.26-5-48.7-7.13-97.2-14.99-145.29-26.15-50.99-11.84-90.61-36.92-120.94-80.04-38.66-54.94-73.85-111.82-100.33-173.38-27.87-64.79-27.79-132.7-13.88-201.02,11.57-56.83,26.71-112.85,51.28-165.3,32.76-69.95,85-120.63,159.5-145.97Z"/>
        <path class="cls-3" d="M1095.61,409.89c-40.04.67-61.3-16.11-67.15-53.58-3.15-20.19,6.62-35.58,19.76-49.44,3.32,6.86,9.65,5.24,15.28,5.3,17.36.19,17.36.14,17.22,17.51-18.41,24.59-17.95,40.76,1.89,64.84,4.27,5.18,8.66,10.25,13,15.37Z"/>
        <path class="cls-4" d="M1204.42,113.3c16.78-1.11,30.25,8.39,44.32,14.84,10.29,4.71,10.69,17.47,3.22,28.29-10.19,14.74-30.84,19.14-50.04,10.66-12.85-5.67-23.97-28.31-20.49-42.22,3.15-12.58,13.67-11.01,22.99-11.58Z"/>
        <path class="cls-3" d="M1104.27,192.42c-1.28-.39-2.55-.89-3.86-1.17-13.36-2.87-27.94-5.35-30.81-21.59-3.12-17.66-.47-34.74,13.63-48.03,2.47,5.64,7.46,5.3,12.53,5.9,21.14,2.5,30.76,10.45,31.56,25.38-13.52,9.77-21.55,22.74-23.05,39.51Z"/>
        <path class="cls-4" d="M1232.37,81.66c-.12-13.09,8.97-28.64,19.82-31.93,13.33-4.05,25.55,1.2,37.18,7.3,1.6.84,3.4,4.12,2.94,5.6-3.47,11.19-3.29,24.22-14.31,31.89-9.61,6.69-20,10.84-31.72,5.77-8.29-3.59-14.93-8.75-13.91-18.63Z"/>
        <path class="cls-4" d="M1403.68,466.6c.37-18.22,9.36-31.96,20.8-31.77,12.08.2,26.19,11.69,25.8,21.02-.65,15.6-15.58,33.68-27.54,33.37-12.57-.33-19.35-8.38-19.06-22.62Z"/>
        <path class="cls-4" d="M1178.14,377.26c14.24.12,26.08,12.01,26.01,24.76-.05,9.71-9.37,18.62-19.52,18.68-12.9.07-25.01-14.21-24.55-29.03.41-12.95,8.44-15.7,18.06-14.41Z"/>
        <path class="cls-4" d="M1315.15,129.77c.06,16.61-7.1,25.26-20.98,25.34-11.11.07-17.43-8.96-18.03-23.63-.5-12.26,7.18-16.16,24.93-17.97,10.2-1.04,14.03,4.23,14.08,16.25Z"/>
        <path class="cls-2" d="M1127.32,152.91c-.8-14.93-10.43-22.88-31.56-25.38-5.06-.6-10.06-.26-12.53-5.9,2.93-2.39,5.87-4.78,8.8-7.18,19.53-1.49,39.5-5.28,55.71,10.62.05,3.18.1,6.37.15,9.54-.31.08-.62.17-.93.27.31.5.62,1,.93,1.5,1.12,11.12-8.68,10.02-14.71,13.13-1.11.62-2.22,1.25-3.34,1.87-.84.51-1.68,1.02-2.53,1.53Z"/>
        <path class="cls-1" d="M1147.74,125.08c-16.21-15.9-36.19-12.1-55.71-10.62,1.92-19.18,17.07-30.31,34.07-23.78,10.21,3.92,20.6,8.21,29.29,15.36-2.55,6.35-5.1,12.69-7.65,19.04Z"/>
        <path class="cls-4" d="M1374.88,464.5c5.74.92,12.79,1.84,13.34,10.77.46,7.47-11.66,19.47-19.15,19.46-8.11,0-12.6-4.44-13.27-12.12-.73-8.3,9.54-18.2,19.08-18.1Z"/>
        <path class="cls-5" d="M1138.07,839.25c1.86-1.76,3.72-3.52,5.59-5.27,29.93-12.73,58.78-27.66,87.38-43.06,3.79-2.04,7.14-3.47,11.32-2.43-32.37,21.84-67.35,38.3-104.28,50.76Z"/>
        <path class="cls-2" d="M1080.72,329.68c.13-17.38.13-17.33-17.22-17.51-5.63-.06-11.96,1.56-15.28-5.3,6.96-10.65,18-12.52,29.39-13.61,1.78,12.08,11.68,23.46,3.12,36.42Z"/>
        <path class="cls-5" d="M1347.32,445.38c2.54-7.4,5.92-14.27,15.28-14.32,5.11-.03,9.05,2.92,8.2,8.4-1.24,8.07-5.43,14.74-14.31,15.58-5.82.55-8.59-3.8-9.17-9.66Z"/>
        <path class="cls-5" d="M1287.41,760.59c-.58-7.57-.74-12.35,10.46-12.89,10.06-.49,18.22-11.07,29.48-11.95-12.5,9.59-26.13,17.37-39.94,24.85Z"/>
        <path class="cls-5" d="M1433.93,611.04c-1.28-1.22-2.56-2.43-3.84-3.65,9.34-8.57,5.22-24.24,16.7-31.68-3.9,11.92-5.99,24.5-12.86,35.33Z"/>
        <path class="cls-5" d="M1370.25,704.54c3.9-11.42,13.52-17.01,23.09-22.65-5.37,9.92-12.99,17.54-23.09,22.65Z"/>
        <path class="cls-5" d="M1255.43,780.39c4.36-8.99,11.24-14.01,21.53-13.7-6.2,6.1-13.16,11.01-21.53,13.7Z"/>
        <path class="cls-5" d="M1327.83,735.44c2.21-10.57,10.38-12.21,19.23-12.82-5.39,5.8-11.89,9.94-19.23,12.82Z"/>
        <path class="cls-5" d="M1421.64,638.85c-1.66-9.53,3-16.28,9.75-22.11-1.51,8.14-4.03,15.82-9.75,22.11Z"/>
        <path class="cls-5" d="M1401.12,672.56c1.61-5.8,1.57-12.7,9.54-14.24-2.34,5.31-3.26,11.57-9.54,14.24Z"/>
        <path class="cls-5" d="M1358.26,714.64c1.05-6.58,3.58-11.42,11.58-9.74-2.71,4.62-6.27,8.23-11.58,9.74Z"/>
        <path class="cls-5" d="M1243.96,787.83c.81-7.07,7.2-5.7,11.45-7.57-2.43,4.63-6.59,6.63-11.45,7.57Z"/>
        <path class="cls-5" d="M1416.11,649.75c-.09-4.43-4.1-10.9,5.39-10.35-.55,4.11-1.85,7.82-5.39,10.35Z"/>
        <path class="cls-5" d="M1347.26,722.49c.9-6.49,5.93-7.19,10.99-7.86-2.53,4.21-6.25,6.75-10.99,7.86Z"/>
        <path class="cls-5" d="M1410.96,658.19c-1.24-4.52-2.25-8.9,5.07-8.03-.32,3.54-1.65,6.45-5.07,8.03Z"/>
        <path class="cls-5" d="M1277.01,766.68c1.16-5.92,5.64-6.19,10.34-6.05-2.3,3.98-6.09,5.41-10.34,6.05Z"/>
        <path class="cls-5" d="M1126.68,843.33c1.28-2.5,2.7-4.51,5.55-1.63-1.48,1.83-3.3,2.45-5.55,1.63Z"/>
        <path class="cls-5" d="M1396.13,678.91c0-3.05,1.47-4.93,4.46-5.6-.5,2.65-1.69,4.75-4.46,5.6Z"/>
        <path class="cls-5" d="M1108.19,847.33c1.41-2.33,3.06-2.82,5.04-.65-1.68.22-3.36.44-5.04.65Z"/>
        <path class="cls-1" d="M1147.9,136.38c-.31-.5-.62-1-.93-1.5.31-.1.62-.19.93-.27,0,.02.61.9.61.9l-.61.88Z"/>
        <path class="cls-3" d="M1129.84,151.38c1.11-.62,2.23-1.25,3.34-1.87-1.11.62-2.23,1.25-3.34,1.87Z"/>
        <path class="cls-5" d="M1119.13,845.17l1-.52s1.12.05,1.12.05c-.71.16-1.41.31-2.12.47Z"/>
        <path class="cls-3" d="M972.18,684.74c-9.81.97-19.66,1.68-29.44,2.95-28.58,3.73-56.94-30.91-59.48-51.41-1.98-16,8.3-27.78,17.94-39.2-.97,8.54,5.02,7.46,9.35,5.71,23.23-9.39,37.46,11.72,56.51,16.29.97.23,1.78,1.99,2.29,3.2,5.63,13.2,10.59,26.65,7.84,41.33-1.2,6.4-7.11,11.65-4.88,19-.04.71-.08,1.42-.15,2.12Z"/>
        <path class="cls-2" d="M972.33,682.62c-2.23-7.35,3.68-12.6,4.88-19,2.75-14.69-2.21-28.13-7.84-41.33-.51-1.21-1.32-2.96-2.29-3.2-19.05-4.57-33.28-25.67-56.51-16.29-4.33,1.75-10.32,2.83-9.35-5.71,5.45-8.47,13.68-13.74,21.91-19,10.04-3,20.51-1.73,30.65-2.96,25.66-3.12,50.95,23,50.75,43.43-.03,3.53-.05,7.52,1.47,10.52,7.18,14.2,5.74,27.71-1.99,41.05,0,0-.1.1-.09.1-9.92,5.68-19.68,11.75-31.58,12.39Z"/>
        <path class="cls-3" d="M914.94,246.92c-16.03,9-33.29,7.21-49.98,3.96-11.42-2.22-18.72-11.55-19.94-23.2-1.89-18.11-.16-35.94,9.7-52.05,1.14,7.06,6.58,6.25,11.46,6.1,8.11-.24,15.97,1.13,23.97,2.33,12.19,1.83,15.97,8.24,17.03,19.9,1.3,14.44,5.06,28.65,7.76,42.97Z"/>
        <path class="cls-3" d="M1257.49,657c-12.58,4.83-25.01,2.45-36.8-2.12-12.94-5.01-17.51-14.5-14.8-32.39,2.77-18.28,8.8-35.68,21.29-50.07,2.81,4.95,4.19,10.57,11.7,11.65,16.04,2.31,22.08,10.88,24.29,26.94,2.22,16.11-2.96,30.78-5.69,45.99Z"/>
        <path class="cls-2" d="M1257.49,657c2.73-15.21,7.9-29.88,5.69-45.99-2.21-16.06-8.25-24.63-24.29-26.94-7.52-1.08-8.9-6.7-11.7-11.65,3.76-6.36,10.28-8.45,16.65-10.77,6.34.07,12.68-.07,19.01.25,19.96.98,30.67,11.18,32.48,31.1,1.63,17.93.19,35.27-11.32,50.29-6.14,4.84-11.64,10.76-20.03,11.8-1.25.55-2.49,1.1-3.74,1.65-.91.09-1.83.18-2.74.27Z"/>
        <path class="cls-2" d="M914.94,246.92c-2.7-14.31-6.45-28.53-7.76-42.97-1.05-11.66-4.84-18.07-17.03-19.9-8-1.2-15.86-2.57-23.97-2.33-4.89.14-10.32.95-11.46-6.1,1.33-4.73,5.92-6.67,8.7-10.17,16.24-4.59,32.53-7.27,49.33-2.75,11.74,3.16,19.16,10.34,20.49,22.4,1.58,14.22,5.5,28.47,1.12,42.87-4.81,8.03-9.44,16.23-19.43,18.94Z"/>
        <path class="cls-3" d="M847.13,486.16c-14.07,5.11-28.24,4.78-41.74-1.14-21.37-9.36-25.59-34.6-9.93-55.94,12.54,5.96,26.44,7.7,39.39,12.8,9.15,3.6,11.5,8.8,12.17,16.9.57,6.81-2.62,12.62-6.27,17.57-7.5,10.15-.63,9.75,6.38,9.81Z"/>
        <path class="cls-1" d="M839.29,105.37c1.58,1.03,3.58,1.63,4.23,2.91,1.25,2.48,1.14,5.49-.68,7.7-3.45,4.16-7.39,7.91-10.87,12.04-20.58,24.44-27.06,54.48-33.99,84.49-4.27,18.47-14.73,34.64-21.26,52.32-1.15,3.11-3.63,3.44-6.62,1.98-4.01-1.95-4.45-4.55-3.45-8.81,2.98-12.67,6.99-25.3,11.66-37.08,5.99-15.12,10.98-30.29,14.45-46.02,5.87-26.63,20.34-47.73,40.73-65.21,1.67-1.43,3.54-2.64,5.81-4.31Z"/>
        <path class="cls-1" d="M798.03,425.2c12.11-27.86,45.74-40.85,71.27-23.8,5.42,3.62,6.76,10.07,7.85,15.36,3.96,19.08,6.89,38.39-7.95,55.07-2.5,2.81-5,3.46-8.23,3.43,13.76-16.17,4.84-31.19-3.16-45.55-6.03-10.81-17.64-10.85-28.56-11.39-11.09-.56-21.38,2.04-31.22,6.88Z"/>
        <path class="cls-5" d="M959.61,224.13c1.66-7.98,1.53-21.61,7.33-34,7.43-15.89,15.48-31.49,21.19-48.16,1.27-3.7,3.88-7.37,6.85-9.93,2.84-2.46,7.26-5.32,10.86-2.53,3.25,2.52,1.29,6.74-.51,9.93-11.05,19.65-17.56,41.31-27.27,61.62-10.51,21.98-5.91,44.47,8.56,64.31,2.48,3.4,4.74,6.47,4.45,10.91-.22,3.34-.83,6.51-4.38,7.62-3.07.96-5.38-1.27-6.71-3.52-9.46-16.08-22.06-30.88-20.36-56.25Z"/>
        <path class="cls-1" d="M1084.64,43.15c21.05,1.54,46.4-4.63,69.76,7.82,2.35,1.25,5.12,2.01,7.04,3.72,2.91,2.59,7.55,5.37,5.38,9.89-2.55,5.29-8.22,3.82-11.88,1.71-18.65-10.75-38.11-8.42-58.65-7.94-22.29.52-44.98-1.07-67.5-1.79-3.54-.11-8.09-.93-8.73-4.87-.68-4.21,4.28-5.51,7.16-6.92,3.04-1.48,6.97-1.52,10.51-1.55,14.47-.15,28.95-.06,46.9-.06Z"/>
        <path class="cls-1" d="M934.38,227.98c4.38-14.4.45-28.65-1.12-42.87-1.34-12.07-8.76-19.24-20.49-22.4-16.8-4.52-33.09-1.84-49.33,2.75.17-1.78-.3-4.03.61-5.28,10.14-14.05,41.88-22.07,58.93-15.09,18.18,7.43,28.09,28.89,25.32,50.86-1.57,12.41.17,25.4-13.91,32.04Z"/>
        <path class="cls-2" d="M798.03,425.2c9.85-4.84,20.13-7.44,31.22-6.88,10.92.55,22.54.58,28.56,11.39,8,14.36,16.93,29.37,3.16,45.55-4.79,3.42-6.51,10.72-13.85,10.9-7.01-.06-13.88.34-6.38-9.81,3.65-4.95,6.84-10.75,6.27-17.57-.67-8.09-3.03-13.29-12.17-16.9-12.95-5.1-26.85-6.84-39.39-12.8.86-1.3,1.72-2.59,2.57-3.89Z"/>
        <path class="cls-1" d="M743.51,399.46c.83-10.68,2.89-20.25,7.84-29.05,1.53-2.72,2.73-6.35,6.68-5.44,4.38,1,5.72,5.27,4.33,8.58-11.74,27.98,2.18,52.29,9.57,77.95,4.01,13.94,3.24,29.28,4.3,44.02.31,4.28,1.16,10.43-4.85,10.91-6.29.5-7.88-6.15-8.09-10.59-.53-10.83-3.18-21.31-4.32-31.91-2.04-19.01-13.33-35.34-14.1-54.48-.14-3.56-.95-7.09-1.35-9.99Z"/>
        <path class="cls-1" d="M1004,670.13c7.73-13.34,9.17-26.86,1.99-41.05-1.52-3-1.5-6.99-1.47-10.52.2-20.43-25.09-46.56-50.75-43.43-10.14,1.23-20.61-.04-30.65,2.96,7.93-12.5,21.47-14.08,33.95-15.59,28.14-3.41,36.83,3.83,50.48,28.64,10.92,19.84,11.33,40.24,10.52,61.29-.33,8.62-2.5,17.29-14.07,17.7Z"/>
        <path class="cls-3" d="M1127.35,703.15c10.11.16,19.24.88,23.07,10.14,3.87,9.35-.88,17.41-7.08,24.46-.88,1-2.08,1.72-3.03,2.67-8.29,8.28-17.1,15.38-29.51,8.45-12.32-6.87-11.71-18.02-8.41-29.43,3.8-13.13,14.14-16.25,24.96-16.28Z"/>
        <path class="cls-1" d="M1390.21,587.22c-.35,17.03-9.02,28.63-16.32,40.26-9.98,15.92-21.92,30.64-33.28,45.67-2.69,3.56-6.3,6.5-9.74,9.43-2.61,2.22-6.03,2.75-8.79.68-3.42-2.55-1.51-5.96.21-8.47,4.32-6.3,9.16-12.24,13.59-18.47,10.41-14.64,20.58-29.44,31.07-44.02,8.93-12.41,7.2-26.57,7.49-40.52.09-4.37-2.69-11.13,5.09-11.8,7.18-.62,5.04,5.89,6.08,9.83,1.72,6.52,3.44,13.05,4.58,17.4Z"/>
        <path class="cls-1" d="M1284,643.28c11.51-15.02,12.95-32.35,11.32-50.29-1.81-19.92-12.51-30.12-32.48-31.1-6.33-.31-12.67-.18-19.01-.25,7.7-9.64,22.19-14.21,33.36-9.36,7.81,3.39,15.47,7.66,22.23,12.8,16.7,12.73,21.33,33.66,10.45,51.83-6.3,10.52-9.83,24.94-25.88,26.36Z"/>
        <path class="cls-1" d="M968.3,752.75c-2.88-.39-5.92-.04-8.16-1.22-28.17-14.78-59.19-24.63-82.58-47.72-3.38-3.33-6.6-6.41-4.45-11.54.98-2.33.52-5.89,3.8-6.58,2.84-.59,5.71.97,6.92,3.31,7.22,13.9,21.7,18.93,34.05,24.41,18.63,8.25,35.21,19.62,52.97,29.09,2.72,1.45,6.01,3.64,5.28,7.11-.9,4.24-5.22,2.11-7.83,3.14Z"/>
        <path class="cls-5" d="M1075.42,676.83c-.38,21.25-.77,38.34-12.34,52.35-1.86,2.25-3.96,7.49-8.26,4.77-3.76-2.38-3.8-6.5-1.57-10.77,14.8-28.24,9.41-55.57-3.9-82.56-2.78-5.63-4.91-11.57-7.44-17.32-1.42-3.23-1.7-6.14,1.76-8.19,3.51-2.07,6-.57,7.77,2.62,11.06,19.94,22.25,39.84,23.98,59.1Z"/>
        <path class="cls-5" d="M819.83,583.64c-3.98-12.7,4.42-23.67,13.48-32.75,12.42-12.46,22.49-26.52,32.77-40.54,2.64-3.6,5.25-6.62,9.88-3.96,5.23,3,2.03,6.9.55,10.51-6.91,16.82-19.17,29.73-31.13,42.9-8.98,9.88-15.3,20.94-14.76,35.01.16,4.04,1.9,10.11-5.1,10.36-7.09.26-5.34-5.75-5.64-9.91-.23-3.14-.05-6.3-.05-11.63Z"/>
        <path class="cls-1" d="M869.73,341.57c18.08,3.24,37.53-.17,51.17,18.01,10.2,13.59,12.4,28.35,12.94,44.04.23,6.76-3.43,6.31-7.56,2.63-3.48-3.1-5.53-6.6-6.09-11.55-.6-5.26-2.79-10.35-4.37-15.49-6.33-20.58-23.84-21.74-40.98-23.49-1.34-.14-2.71-.09-4.06-.04-7.73.32-17.13-2.11-16.83-9.37.35-8.49,10.51-1.94,15.79-4.74Z"/>
        <path class="cls-1" d="M1112.97,531.59c-3.88,14.76-16.15,11.66-26.11,11.25-9.2-.38-14.76-6.82-14.09-16.32.85-12.05-4.1-24.85,6.6-35.73,8.62-8.76,18.89-8.65,28.62-6.82,7.89,1.48,13.15,8.62,13.68,17.66-3.83-1.15-7.61-2.56-11.5-3.42-10.68-2.36-22.17,4.59-23.61,14.07-1.52,10.01,5.17,17.88,17.09,19.63,3.02.44,6.2-.19,9.31-.33Z"/>
        <path class="cls-5" d="M1186.77,770.69c.59-14.07,9.33-24.06,17.46-34.21,10.09-12.59,16.83-25.22,6.83-41.28-2.99-4.8-6-10.2-5.24-16.5.31-2.6-.41-5.69,2.85-6.91,3.4-1.27,4.57,1.63,6.32,3.64,17.71,20.37,17.58,51.06-1.34,70.23-7.83,7.93-14.52,15.82-15.82,27.19-.47,4.09-1.79,7.2-6.64,6.39-5.04-.85-4.16-5.06-4.42-8.54Z"/>
        <path class="cls-1" d="M969.6,53.96c14.39-.1,24.06,9.02,24.16,22.78.11,15.1-15.82,29.19-32.68,28.89-10.95-.2-18.88-9.36-18.88-21.82,0-18.77,10.06-29.74,27.4-29.85ZM965.42,64.59c-6.99-.08-15.08,7.05-15.13,16.52-.06,9.84,4.37,16.71,14.12,18.42,8.12,1.42,15.91-11.32,15.82-24.58-.05-7.45-4.23-10.34-14.8-10.36Z"/>
        <path class="cls-3" d="M1112.97,531.59c-3.11.14-6.29.77-9.31.33-11.92-1.75-18.61-9.62-17.09-19.63,1.44-9.48,12.93-16.43,23.61-14.07,3.9.86,7.67,2.26,11.5,3.42,7.13,12.9.77,21.88-8.71,29.96Z"/>
        <path class="cls-5" d="M974.63,383.11c.6-5-1.03-9.65,3.97-10.49,4.35-.74,5.84,2.89,7.26,6.5,3.95,10.05,7.46,20.06,8.09,31.08.73,12.83,9.55,21.85,16.66,31.58,1.68,2.3,6.02,4.2,2.81,7.65-2.36,2.53-5.93,1.5-8.73-.34-16.21-10.64-22.3-27.65-26.74-45.04-1.83-7.17-.51-15.21-3.31-20.93Z"/>
        <path class="cls-1" d="M1121.48,638.5c-10.95-6.93-22.35-12.9-29.04-23.86-4.12-6.74-6.26-14.77-8.67-22.42-.87-2.78-.67-6.54,3.38-7.71,3.48-1.01,6.45.15,7.73,3.54,5.91,15.67,17.7,26.75,29.25,38.05,2.84,2.78,3.7,6.29,1.89,9.83-.62,1.22-2.81,1.64-4.54,2.56Z"/>
        <path class="cls-1" d="M1015.82,223.57c.11-5.09,2.56-6.59,6.22-6.18,15.53,1.71,31.05,3.44,46.54,5.46,1.92.25,4.1,1.9,5.26,3.53,1.1,1.55-.49,2.85-2.05,4.09-7.64,6.13-47.03,4.02-53.82-3.2-1.14-1.21-1.72-2.95-2.14-3.7Z"/>
        <path class="cls-1" d="M930.54,513.57c4.04,1.27,8.17,3.96,3.82,8.31-8.8,8.82-13.09,20.51-20.74,30-2.89,3.59-5.79,6.51-10,3.68-3.59-2.41-2.28-6.31-.43-9.73,5.34-9.88,9.98-20.22,18.99-27.59,2.42-1.98,4.37-4.68,8.36-4.67Z"/>
        <path class="cls-1" d="M1048.74,778.4c-4.42-2.7-12.81.57-13.55-8-.38-4.4,3.73-4.52,6.87-4.25,4.98.42,10.22,1.1,11.22,7.4.46,2.87-.33,5.56-4.54,4.85Z"/>
        <path class="cls-1" d="M972.33,682.62c11.9-.64,21.66-6.71,31.58-12.39-3.72,12.26-17.8,18.7-31.72,14.51.06-.71.11-1.41.15-2.12Z"/>
        <path class="cls-3" d="M1260.23,656.73c1.24-.55,2.49-1.1,3.74-1.65-1.24.55-2.49,1.1-3.74,1.65Z"/>
        <path class="cls-3" d="M965.42,64.59c10.58.02,14.75,2.9,14.8,10.36.1,13.26-7.69,26-15.82,24.58-9.75-1.7-14.18-8.58-14.12-18.42.06-9.47,8.14-16.6,15.13-16.52Z"/>
      </g>
      <path class="cls-6" d="M579.47,75.46c0,21.29-8.87,39.8-26.61,55.51-8.63,8.25-30.42,23.2-65.4,44.84-103.94,62.89-214.96,148.2-333.09,255.92,74.02,70.39,148.03,132.55,222.06,186.46,39.54,27.46,79.08,54.92,118.63,82.37,32.44,22.81,48.67,47.15,48.67,73,0,41.58-21.8,62.36-65.4,62.36-33.46,0-98.36-37.55-194.68-112.65C94.55,577.13,0,479.96,0,431.73c0-36.52,36.75-88.28,110.27-155.27,58.8-53.28,128.52-106.81,209.12-160.6C421.79,47.36,486.18,13.1,512.55,13.1c44.61,0,66.92,20.79,66.92,62.36Z"/>
      <path class="cls-6" d="M1575.91,13.1c26.37,0,90.76,34.25,193.16,102.76,80.61,53.79,150.32,107.32,209.12,160.6,73.51,66.99,110.27,118.75,110.27,155.27,0,48.22-94.55,145.39-283.65,291.53-96.31,75.11-161.22,112.65-194.68,112.65-43.6,0-65.4-20.78-65.4-62.36,0-25.86,16.23-50.19,48.67-73,39.55-27.45,79.09-54.91,118.63-82.37,74.03-53.91,148.04-116.06,222.06-186.46-118.13-107.72-229.15-193.03-333.09-255.92-34.98-21.64-56.77-36.6-65.4-44.84-17.74-15.71-26.61-34.22-26.61-55.51,0-41.56,22.31-62.36,66.92-62.36Z"/>
    </g>
  </g>
</svg>