<?xml version="1.0" standalone="no"?>
<!DOCTYPE svg PUBLIC "-//W3C//DTD SVG 20010904//EN"
 "http://www.w3.org/TR/2001/REC-SVG-20010904/DTD/svg10.dtd">
<svg version="1.0" xmlns="http://www.w3.org/2000/svg"
 width="250.000000pt" height="250.000000pt" viewBox="0 0 250.000000 250.000000"
 preserveAspectRatio="xMidYMid meet">
<metadata>
Created by potrace 1.14, written by Peter Selinger 2001-2017
</metadata>
<g transform="translate(0.000000,250.000000) scale(0.100000,-0.100000)"
fill="#000000" stroke="none">
<path d="M1050 2485 c-112 -21 -124 -24 -185 -45 -33 -11 -64 -22 -70 -24 -65
-18 -262 -133 -345 -202 -42 -36 -180 -177 -180 -185 0 -3 -11 -19 -25 -35
-14 -16 -28 -37 -31 -46 -3 -10 -9 -18 -13 -18 -4 0 -17 -19 -30 -42 -12 -24
-26 -50 -31 -58 -22 -36 -82 -185 -85 -210 0 -3 -3 -9 -7 -15 -22 -36 -42
-192 -42 -340 -1 -188 6 -240 50 -388 40 -135 132 -307 219 -412 63 -75 182
-192 226 -220 9 -5 36 -23 60 -39 65 -43 195 -109 264 -134 141 -50 232 -65
405 -66 91 0 186 2 213 6 58 9 203 46 225 57 9 5 49 22 87 37 39 15 76 34 83
41 7 7 18 13 23 13 13 0 133 80 137 91 2 5 8 9 13 9 14 0 161 137 204 192 50
62 146 207 151 228 0 3 13 32 28 65 31 66 56 142 82 250 20 82 28 363 13 441
-24 123 -45 196 -80 283 -34 84 -111 228 -129 241 -4 3 -11 12 -16 21 -28 50
-158 189 -225 240 -17 13 -44 34 -59 47 -15 12 -33 22 -39 22 -6 0 -11 5 -11
10 0 6 -7 10 -15 10 -8 0 -15 3 -15 8 0 6 -41 27 -201 102 -27 14 -161 49
-237 63 -89 17 -325 18 -412 2z"/>
</g>
</svg>
